HIERARCHY
ROOT Hips
{
	OFFSET 0.00000 0.00000 0.00000
	CHANNELS 6 Xposition Yposition Zposition Zrotation Yrotation Xrotation 
	JOINT RightUpLegDummy
	{
		OFFSET 0 0 0
		CHANNELS 3 Zrotation Yrotation Xrotation
		JOINT RightUpLeg
		{
			OFFSET -3.52197 -3.41223 0.04002
			CHANNELS 3 Zrotation Yrotation Xrotation
			JOINT RightLeg
			{
				OFFSET 0.00006 -17.42390 1.60435
				CHANNELS 3 Zrotation Yrotation Xrotation
				JOINT RightFoot
				{
					OFFSET 0.06153 -16.50078 -1.63901
					CHANNELS 3 Zrotation Yrotation Xrotation
					JOINT RightToes
					{
						OFFSET 0.00298 -1.73825 3.34613
						CHANNELS 3 Zrotation Yrotation Xrotation
						End Site
						{
							OFFSET 0.00480 -0.05416 3.85043
						}
					}
				}
			}
		}
	}
	JOINT SpineDummy
	{
		OFFSET 0 0 0
		CHANNELS 3 Zrotation Yrotation Xrotation
		JOINT Spine
		{
			OFFSET 0.00000 4.68130 0.00000
			CHANNELS 3 Zrotation Yrotation Xrotation
			JOINT Spine1
			{
				OFFSET -0.00000 10.10138 0.05002
				CHANNELS 3 Zrotation Yrotation Xrotation
				JOINT HEadDummy
				{
					OFFSET 0 0 0
					CHANNELS 3 Zrotation Yrotation Xrotation
					JOINT Head
					{
						OFFSET -0.00000 3.43865 0.00438
						CHANNELS 3 Zrotation Yrotation Xrotation
						End Site
						{
							OFFSET -0.11417 5.02924 0.98962
						}
					}
				}
				JOINT LeftShoulder1Dummy
				{
					OFFSET 0 0 0
					CHANNELS 3 Zrotation Yrotation Xrotation
					JOINT LeftShoulder1
					{
						OFFSET 3.53937 -0.14262 -0.08662
						CHANNELS 3 Zrotation Yrotation Xrotation
						JOINT LeftArm
						{
							OFFSET 4.04833 -0.00133 0.12681
							CHANNELS 3 Zrotation Yrotation Xrotation
							JOINT LeftForeArm
							{
								OFFSET 10.33880 -0.01036 -0.55515
								CHANNELS 3 Zrotation Yrotation Xrotation
								JOINT LeftHand
								{
									OFFSET 8.69677 0.07543 0.40060
									CHANNELS 3 Zrotation Yrotation Xrotation
									End Site
									{
										OFFSET 5.28377 -0.21905 0.59205
									}
								}
							}
						}
					}
				}
				JOINT RightShoulderDummy
				{
					OFFSET 0 0 0
					CHANNELS 3 Zrotation Yrotation Xrotation
					JOINT RightShoulder
					{
						OFFSET -3.53937 -0.14262 -0.08660
						CHANNELS 3 Zrotation Yrotation Xrotation
						JOINT RightArm
						{
							OFFSET -4.04833 -0.00133 0.12683
							CHANNELS 3 Zrotation Yrotation Xrotation
							JOINT RightForeArm
							{
								OFFSET -10.37987 -0.01039 -0.55511
								CHANNELS 3 Zrotation Yrotation Xrotation
								JOINT RightHand
								{
									OFFSET -8.67398 0.07538 0.40058
									CHANNELS 3 Zrotation Yrotation Xrotation
									End Site
									{
										OFFSET -5.24810 -0.21916 0.59204
									}
								}
							}
						}
					}
				}
			}
		}
	}
	JOINT LeftUpLegDummy
	{
		OFFSET 0 0 0
		CHANNELS 3 Zrotation Yrotation Xrotation
		JOINT LeftUpLeg
		{
			OFFSET 3.52197 -3.41223 0.04002
			CHANNELS 3 Zrotation Yrotation Xrotation
			JOINT LeftLeg
			{
				OFFSET -0.00012 -17.42399 1.60337
				CHANNELS 3 Zrotation Yrotation Xrotation
				JOINT LeftFoot
				{
					OFFSET -0.09972 -16.50070 -1.63802
					CHANNELS 3 Zrotation Yrotation Xrotation
					JOINT LeftToes
					{
						OFFSET -0.01575 -1.73823 3.34611
						CHANNELS 3 Zrotation Yrotation Xrotation
						End Site
						{
							OFFSET 0.03150 -0.01868 3.85031
						}
					}
				}
			}
		}
	}
}
MOTION
Frames: 17
Frame Time: 0.033333
-33.7718 38.4277 27.7074 175.8000 34.7350 170.5790 0.0000 0.0000 0.0000 -5.1339 -2.5627 -4.1973 -8.9464 -4.3178 57.8900 3.8607 -0.5584 5.4102 0.0000 -0.0000 0.0000 0.0000 0.0000 0.0000 -3.5399 0.3485 12.9398 2.8072 -0.2206 -3.1531 -0.0000 0.0000 -0.0000 3.7536 -9.3611 8.7106 -0.0000 0.0000 -0.0000 -33.8076 -2.3926 2.3490 -39.7671 -14.6499 -18.1484 -10.6187 5.0900 49.3337 11.6707 -3.7663 -0.8901 -0.0000 0.0000 -0.0000 34.2175 5.0903 3.4574 37.6703 3.1412 -19.6575 9.8223 -0.7582 21.8124 -10.3070 1.5731 -0.6047 0.0000 0.0000 0.0000 -3.9157 1.2299 -10.3079 -0.6708 5.0296 21.9760 1.3026 -0.0219 -6.2713 0.0000 0.0000 -0.0000
-33.3732 38.5070 26.7047 176.1770 35.1555 170.2690 0.0000 0.0000 0.0000 -4.4094 -2.4892 -7.3004 -12.4111 -5.3276 60.8714 0.6708 -0.0742 3.4319 0.0000 -0.0000 0.0000 0.0000 0.0000 0.0000 -3.5433 -0.0867 13.1943 3.3661 -0.7806 -2.9349 -0.0000 0.0000 -0.0000 3.5927 -8.7980 9.3118 -0.0000 0.0000 -0.0000 -33.8727 -2.3717 2.3445 -39.9406 -15.3076 -17.5803 -10.9145 5.1193 48.2067 12.7534 -4.0569 -1.0058 -0.0000 0.0000 -0.0000 34.2319 5.0946 3.4603 37.7046 3.2410 -19.5706 9.8443 -1.0694 22.2527 -10.2424 1.4483 -0.5907 0.0000 0.0000 0.0000 -3.8577 1.4434 -8.0447 -0.5349 5.2326 22.3088 0.6575 0.0299 -8.0771 0.0000 0.0000 -0.0000
-32.9369 38.6019 25.6979 176.8680 35.3039 170.4080 0.0000 0.0000 0.0000 -3.3491 -2.5745 -10.0279 -13.3380 -5.7463 60.8288 -0.5177 0.0628 1.0526 0.0000 -0.0000 0.0000 0.0000 0.0000 0.0000 -3.2776 -0.6746 13.0618 3.8046 -1.4635 -2.7338 -0.0000 0.0000 -0.0000 3.6109 -8.5424 10.5031 -0.0000 0.0000 -0.0000 -33.6075 -2.3739 2.3297 -40.4432 -16.3274 -17.4440 -10.8116 5.1198 48.2313 13.5479 -4.1306 -1.0788 -0.0000 0.0000 -0.0000 34.2454 5.0939 3.4612 38.0629 2.9292 -19.5290 9.8412 -0.4821 21.8988 -10.2604 1.6848 -0.6109 0.0000 0.0000 0.0000 -3.6179 1.6562 -5.8694 -0.4531 5.0690 22.3031 0.4406 0.0514 -9.5670 0.0000 0.0000 -0.0000
-32.4798 38.6798 24.7084 177.5510 35.5862 170.6800 0.0000 0.0000 0.0000 -2.1697 -2.2800 -12.4567 -11.7962 -5.6494 58.3751 -0.6102 0.0550 -0.6270 0.0000 -0.0000 0.0000 0.0000 0.0000 0.0000 -2.9449 -1.1680 12.8239 4.1161 -2.0262 -2.5894 -0.0000 0.0000 -0.0000 3.8465 -8.7384 11.7642 -0.0000 0.0000 -0.0000 -33.2659 -2.3638 2.3055 -40.9501 -17.6324 -17.3929 -10.5947 5.1036 48.8797 13.1684 -3.9032 -1.0236 -0.0000 0.0000 -0.0000 34.4224 5.1155 3.4854 38.3949 2.3650 -19.3609 9.9121 0.6765 20.9197 -10.2845 2.1360 -0.6489 0.0000 0.0000 0.0000 -3.3188 1.9542 -3.8066 -0.3910 5.0076 22.1716 0.6139 0.0639 -10.9835 0.0000 0.0000 -0.0000
-32.0049 38.7181 23.7440 178.0320 36.1318 170.9430 0.0000 0.0000 0.0000 -1.0455 -1.8545 -14.5993 -9.7462 -5.5494 54.1439 -0.7802 0.0560 -2.0257 0.0000 -0.0000 0.0000 0.0000 0.0000 0.0000 -2.7806 -1.5065 12.5331 4.4476 -2.4470 -2.3933 -0.0000 0.0000 -0.0000 4.2154 -9.0749 12.5229 -0.0000 0.0000 -0.0000 -33.1350 -2.3521 2.2932 -41.1983 -18.9257 -17.1499 -10.5148 5.0849 49.5445 12.5207 -3.9001 -0.9706 -0.0000 0.0000 -0.0000 34.6550 5.1444 3.5175 38.6039 1.9697 -18.9435 10.0709 1.8624 20.0994 -10.3098 2.2218 -0.6575 0.0000 0.0000 0.0000 -3.0241 2.3540 -1.8459 -0.4139 5.1337 21.9996 0.3116 0.0776 -12.5355 0.0000 0.0000 -0.0000
-31.5095 38.7425 22.8133 178.3760 36.8084 171.2620 0.0000 0.0000 0.0000 0.0053 -1.8140 -16.3352 -8.3572 -5.9245 48.3728 -0.9248 0.0558 -3.0586 0.0000 -0.0000 0.0000 0.0000 0.0000 0.0000 -2.8118 -1.7573 12.1987 4.8940 -2.8128 -2.1762 -0.0000 0.0000 -0.0000 4.6253 -9.3705 12.7680 -0.0000 0.0000 -0.0000 -33.1971 -2.3703 2.3040 -41.3259 -19.8957 -16.6371 -10.6526 5.0792 49.6792 12.6079 -4.1164 -0.9995 -0.0000 0.0000 -0.0000 34.7681 5.1566 3.5324 38.8521 1.8682 -18.3666 10.2506 2.8075 19.8311 -10.3965 1.7698 -0.6261 0.0000 0.0000 0.0000 -2.7826 2.6748 0.0996 -0.4250 5.3295 21.5555 -0.4757 0.0729 -13.9161 0.0000 0.0000 -0.0000
-30.9960 38.8134 21.9340 178.6300 37.5468 171.6480 0.0000 0.0000 0.0000 1.0318 -2.1047 -17.5368 -7.4066 -6.7791 41.1726 -0.9326 0.0541 -3.2350 0.0000 -0.0000 0.0000 0.0000 0.0000 0.0000 -3.0087 -1.9389 11.9049 5.4326 -3.1305 -2.0696 -0.0000 0.0000 -0.0000 5.0642 -9.7146 12.8782 -0.0000 0.0000 -0.0000 -33.2705 -2.4015 2.3205 -41.5810 -20.4566 -15.9483 -10.9483 5.0975 48.9381 12.5332 -3.8269 -0.9651 -0.0000 0.0000 -0.0000 34.7777 5.1573 3.5335 39.2052 1.9054 -17.9037 10.3661 3.4554 19.8504 -10.4733 1.3211 -0.5940 0.0000 0.0000 0.0000 -2.7129 2.7623 2.2419 -0.2410 5.7636 20.3018 -1.0056 0.0590 -14.7119 0.0000 0.0000 -0.0000
-30.4760 38.9212 21.1110 178.6720 38.4250 172.0160 0.0000 0.0000 0.0000 2.0227 -2.5812 -18.2368 -6.4528 -7.8744 32.9189 -0.8498 0.0519 -2.8909 0.0000 -0.0000 0.0000 0.0000 0.0000 0.0000 -3.3261 -2.0263 11.6271 5.8863 -3.3347 -2.0266 -0.0000 0.0000 -0.0000 5.5547 -10.1620 13.0075 -0.0000 0.0000 -0.0000 -33.2933 -2.4124 2.3262 -41.9410 -20.7764 -15.2232 -11.2978 5.1288 47.7058 11.2681 -3.0205 -0.7917 -0.0000 0.0000 -0.0000 34.8075 5.1635 3.5386 39.5511 1.9818 -17.7649 10.3748 3.7892 19.8458 -10.3398 1.3979 -0.5923 0.0000 0.0000 0.0000 -2.9106 2.6880 4.5146 0.0832 6.7067 18.2959 -1.1391 0.0532 -15.0887 0.0000 0.0000 -0.0000
-29.9482 39.0009 20.3165 178.3980 39.4664 172.3310 0.0000 0.0000 0.0000 3.1070 -3.8204 -18.5408 -5.4634 -9.1331 24.1567 -0.0808 -0.0040 -2.7842 0.0000 -0.0000 0.0000 0.0000 0.0000 0.0000 -3.6887 -2.0478 11.1348 6.0949 -3.4225 -1.8199 -0.0000 0.0000 -0.0000 6.0101 -10.6603 12.9606 -0.0000 0.0000 -0.0000 -33.3154 -2.4039 2.3242 -42.2725 -21.0133 -14.5292 -11.6220 5.1485 46.8643 10.0359 -2.6871 -0.6738 -0.0000 0.0000 -0.0000 34.8987 5.1769 3.5522 39.7709 2.0863 -17.8094 10.3402 3.9223 19.7576 -9.9824 1.8100 -0.5993 0.0000 0.0000 0.0000 -3.3585 2.5991 6.6198 0.3082 8.0285 16.1769 -1.3945 0.0433 -15.3352 0.0000 0.0000 -0.0000
-29.3922 39.0627 19.5377 177.8510 40.4932 172.6120 0.0000 0.0000 0.0000 4.0608 -5.3471 -18.3632 -4.3603 -11.9556 15.2403 1.6290 -0.1296 -3.0300 0.0000 -0.0000 0.0000 0.0000 0.0000 0.0000 -4.1944 -2.0728 10.3331 6.2490 -3.4968 -1.4161 -0.0000 0.0000 -0.0000 6.2514 -11.1714 12.6438 -0.0000 0.0000 -0.0000 -33.3622 -2.3841 2.3192 -42.6344 -21.1003 -13.8708 -11.9051 5.1511 46.6381 10.5723 -3.2538 -0.7613 -0.0000 0.0000 -0.0000 35.0046 5.1911 3.5673 39.8223 2.0832 -17.6810 10.3884 4.1059 19.5859 -9.7411 2.0207 -0.6048 0.0000 0.0000 0.0000 -3.9637 2.5090 8.6197 0.2623 9.2640 13.9145 -1.8076 0.0312 -15.1133 0.0000 0.0000 -0.0000
-28.7848 39.1383 18.7853 177.1340 41.2976 172.8440 0.0000 0.0000 0.0000 3.4079 -3.3262 -17.5237 -2.5912 -20.1701 6.5509 3.4680 -0.2539 -3.3931 0.0000 -0.0000 0.0000 0.0000 0.0000 0.0000 -5.0357 -2.1379 9.4198 6.6849 -3.6425 -1.0662 -0.0000 0.0000 -0.0000 6.2398 -11.6936 12.2821 -0.0000 0.0000 -0.0000 -33.4426 -2.3508 2.3108 -43.1372 -20.8779 -13.3049 -12.1749 5.1568 46.3031 12.1206 -3.8644 -0.9343 -0.0000 0.0000 -0.0000 35.0877 5.2041 3.5800 39.7277 1.7506 -17.3282 10.5370 4.4498 19.3166 -9.9089 1.9017 -0.6062 0.0000 0.0000 0.0000 -4.5655 2.4554 10.6939 -0.1554 10.0289 11.2881 -1.9372 0.0355 -14.3030 0.0000 0.0000 -0.0000
-28.1089 39.1574 18.0202 176.3270 41.9336 173.0010 0.0000 0.0000 0.0000 2.3044 0.6274 -16.5544 -0.8636 -30.3662 -0.8790 5.1446 -0.3393 -4.1102 0.0000 -0.0000 0.0000 0.0000 0.0000 0.0000 -5.9909 -2.2326 8.4999 7.2418 -3.8048 -0.8857 -0.0000 0.0000 -0.0000 6.1595 -12.2582 12.0747 -0.0000 0.0000 -0.0000 -33.5973 -2.3254 2.3099 -43.6831 -20.3385 -12.9623 -12.4230 5.1783 45.3927 12.6013 -3.9450 -0.9818 -0.0000 0.0000 -0.0000 35.1235 5.2110 3.5860 39.5821 1.0813 -17.1215 10.6517 4.7342 19.0074 -10.3541 1.7052 -0.6183 0.0000 0.0000 0.0000 -4.9515 2.7541 12.5143 -0.8752 10.1305 9.3216 -2.0256 0.0397 -13.7581 0.0000 0.0000 -0.0000
-27.3650 39.0622 17.1744 175.5480 42.6146 173.0930 0.0000 0.0000 0.0000 2.6666 1.6480 -16.1421 -0.7764 -36.1781 -4.4999 6.7157 -0.3626 -5.5185 0.0000 -0.0000 0.0000 0.0000 0.0000 0.0000 -6.4724 -2.3470 7.4713 7.3892 -3.8848 -0.6867 -0.0000 0.0000 -0.0000 6.1480 -12.9238 11.9306 -0.0000 0.0000 -0.0000 -33.8619 -2.3411 2.3317 -44.1007 -19.6160 -12.9249 -12.5784 5.2035 44.3750 11.7759 -3.8647 -0.9073 -0.0000 0.0000 -0.0000 35.0514 5.1970 3.5739 39.4844 0.3341 -17.3558 10.6290 4.6150 18.7687 -10.7853 1.5361 -0.6303 0.0000 0.0000 0.0000 -4.9393 4.0170 13.8009 -1.6244 9.2175 9.0696 -2.6957 0.0237 -13.8556 0.0000 0.0000 -0.0000
-26.5560 38.9097 16.2311 175.0120 43.2534 173.1460 0.0000 0.0000 0.0000 2.9810 2.1254 -16.1255 -2.2069 -40.0947 -3.4014 6.8060 -0.2983 -6.8034 0.0000 -0.0000 0.0000 0.0000 0.0000 0.0000 -6.2248 -2.5433 6.2676 7.0449 -3.9553 -0.2600 -0.0000 0.0000 -0.0000 6.0863 -13.6985 11.7603 -0.0000 0.0000 -0.0000 -34.2295 -2.3853 2.3712 -44.4088 -18.8392 -13.1982 -12.5405 5.2108 44.1208 11.0156 -3.9049 -0.8497 -0.0000 0.0000 -0.0000 34.8471 5.1581 3.5400 39.3764 -0.3594 -17.9517 10.4905 3.9982 18.6969 -11.0594 1.3372 -0.6294 0.0000 0.0000 0.0000 -4.2515 7.1414 14.9504 -2.2162 6.2064 10.2124 -3.5895 0.0050 -13.8249 0.0000 0.0000 -0.0000
-25.6651 38.7467 15.2194 174.9540 43.5188 173.2030 0.0000 0.0000 0.0000 3.4318 1.9734 -16.2355 -4.8719 -41.7108 0.7598 4.1842 -0.1948 -6.5259 0.0000 -0.0000 0.0000 0.0000 0.0000 0.0000 -5.4561 -2.8859 4.9509 6.6119 -4.1799 0.3728 -0.0000 0.0000 -0.0000 5.8217 -14.5490 11.8073 -0.0000 0.0000 -0.0000 -34.6458 -2.4092 2.4058 -44.7581 -18.1193 -13.8284 -12.2046 5.1843 45.2775 10.9435 -3.8411 -0.8383 -0.0000 0.0000 -0.0000 34.6492 5.1222 3.5079 39.0495 -1.2369 -18.7872 10.2644 3.1083 18.9052 -11.0644 1.2399 -0.6211 0.0000 0.0000 0.0000 -2.1966 13.3894 16.2867 -2.7256 -0.6104 12.7089 -4.1632 0.0035 -13.4143 0.0000 0.0000 -0.0000
-24.7251 38.5846 14.2325 175.4940 43.5881 173.3400 0.0000 0.0000 0.0000 4.1458 1.7553 -16.4671 -7.7819 -41.0124 5.8372 -0.2846 0.0050 -4.5173 0.0000 -0.0000 0.0000 0.0000 0.0000 0.0000 -4.3302 -3.2209 4.0127 6.3022 -4.4257 0.7170 -0.0000 0.0000 -0.0000 5.4696 -15.4866 12.3772 -0.0000 0.0000 -0.0000 -34.9704 -2.3947 2.4194 -45.2407 -17.5507 -14.8413 -11.5395 5.1235 47.7740 10.9681 -3.6226 -0.8214 -0.0000 0.0000 -0.0000 34.6578 5.1239 3.5094 38.4153 -2.4748 -19.8927 9.9226 2.1886 19.4114 -10.7545 1.4112 -0.6178 0.0000 0.0000 0.0000 1.3565 20.8532 17.3489 -3.7809 -9.1874 17.2577 -5.7272 0.0093 -12.6019 0.0000 0.0000 -0.0000
-23.8141 38.4313 13.3388 176.5380 44.3063 173.5590 0.0000 0.0000 0.0000 5.1504 1.5134 -16.6559 -9.6814 -38.2931 10.6156 -4.0156 0.3035 -2.3419 0.0000 -0.0000 0.0000 0.0000 0.0000 0.0000 -2.6780 -3.2448 3.8310 5.8253 -4.3421 0.5061 -0.0000 0.0000 -0.0000 5.3262 -16.4671 13.3325 -0.0000 0.0000 -0.0000 -35.0298 -2.3681 2.4121 -45.8518 -17.0875 -15.9738 -10.7610 5.0581 50.3407 10.7861 -3.5872 -0.8041 -0.0000 0.0000 -0.0000 34.8404 5.1544 3.5378 37.6849 -3.6254 -21.1319 9.4978 1.2549 19.9454 -10.4099 1.6705 -0.6189 0.0000 0.0000 0.0000 4.5926 22.5212 17.0353 -6.2521 -11.7584 24.0345 -10.5586 0.1867 -10.1786 0.0000 0.0000 -0.0000
